<svg width="24" height="19" viewBox="0 0 24 19" fill="none" xmlns="http://www.w3.org/2000/svg">
<g clip-path="url(#clip0_2501_22959)">
<path d="M20.3303 2.09419C18.7535 1.36394 17.0888 0.845869 15.3789 0.553223C15.1449 0.976347 14.9332 1.41168 14.7446 1.85742C12.9232 1.57978 11.071 1.57978 9.24961 1.85742C9.06095 1.41173 8.84924 0.976398 8.61535 0.553223C6.90433 0.848341 5.2386 1.36764 3.66019 2.09801C0.526644 6.78776 -0.322811 11.361 0.101917 15.8694C1.937 17.2409 3.99098 18.284 6.17458 18.9532C6.66626 18.2843 7.10134 17.5746 7.47519 16.8318C6.76511 16.5635 6.07975 16.2325 5.42706 15.8426C5.59884 15.7166 5.76684 15.5868 5.92918 15.4607C7.82837 16.3642 9.90124 16.8326 12 16.8326C14.0987 16.8326 16.1715 16.3642 18.0707 15.4607C18.235 15.5963 18.403 15.7262 18.5729 15.8426C17.9189 16.2331 17.2323 16.5648 16.5209 16.8337C16.8943 17.5762 17.3294 18.2853 17.8216 18.9532C20.007 18.2866 22.0626 17.2441 23.898 15.8713C24.3963 10.6431 23.0467 6.11179 20.3303 2.09419ZM8.01318 13.0968C6.8296 13.0968 5.85179 12.0103 5.85179 10.6736C5.85179 9.33695 6.79563 8.24089 8.0094 8.24089C9.22318 8.24089 10.1934 9.33695 10.1727 10.6736C10.1519 12.0103 9.21941 13.0968 8.01318 13.0968ZM15.9867 13.0968C14.8013 13.0968 13.8272 12.0103 13.8272 10.6736C13.8272 9.33695 14.7711 8.24089 15.9867 8.24089C17.2024 8.24089 18.1651 9.33695 18.1444 10.6736C18.1236 12.0103 17.193 13.0968 15.9867 13.0968Z" fill="#646D77"/>
</g>
<defs>
<clipPath id="clip0_2501_22959">
<rect width="24" height="18.4" fill="white" transform="translate(0 0.553223)"/>
</clipPath>
</defs>
</svg>
