<svg width="129" height="36" viewBox="0 0 129 36" fill="none" xmlns="http://www.w3.org/2000/svg">
<g clip-path="url(#clip0_2501_22965)">
<path d="M52.8773 25.1133C52.4686 25.5717 51.4407 26.2353 49.8839 26.2353C46.6381 26.2353 44.2878 24.1058 44.2878 20.1183C44.2878 16.4264 46.9386 13.8867 50.0883 13.8867C51.7533 13.8867 52.4866 14.2065 52.8773 14.4598V9.32615H56.1893V26.0604H52.8773V25.1133ZM52.8773 21.7471V17.8984C52.4866 17.4158 51.8976 16.9814 50.7976 16.9814C49.1085 16.9814 47.714 18.0612 47.714 20.0761C47.714 22.091 48.9222 23.1467 50.5932 23.1467C51.4588 23.1467 52.4866 22.5977 52.8773 21.7471Z" fill="white"/>
<path d="M58.3107 15.7145C59.4287 14.5442 61.3702 13.8807 63.5401 13.8807C66.5996 13.8807 68.4028 15.6904 68.4028 18.8334V26.0543H65.0909V24.9745C64.586 25.5717 63.3297 26.187 61.8931 26.187C59.2664 26.187 57.5533 24.6547 57.5533 22.29C57.5533 19.5392 60.1079 18.3689 62.945 18.3689C63.7685 18.3689 64.592 18.4835 65.0909 18.6644C65.1149 17.4519 64.4537 16.9693 63.1734 16.9693C61.8931 16.9693 61.1177 17.2468 59.8855 18.1155L58.3107 15.7085V15.7145ZM65.0909 21.4213C64.7242 21.2826 63.9729 21.1257 63.2876 21.1257C61.9652 21.1257 60.9795 21.4213 60.9795 22.296C60.9795 22.9355 61.5745 23.3276 62.5783 23.3276C63.6964 23.3276 64.7002 22.7304 65.0909 21.9763V21.4213Z" fill="white"/>
<path d="M85.1496 17.0719V23.5568C83.5988 25.2761 81.2666 26.3318 78.712 26.3318C73.687 26.3318 70.0564 23.0079 70.0564 18.0371C70.0564 13.4523 73.3924 9.74234 78.3213 9.74234C81.0623 9.74234 83.665 10.8885 84.783 12.6319L82.3366 14.8338C81.4229 13.8022 80.1005 13.1809 78.4536 13.1809C75.5503 13.1809 73.723 15.0148 73.723 18.0371C73.723 21.0594 75.8268 22.8933 78.7241 22.8933C79.7759 22.8933 80.894 22.5977 81.7355 21.9763V20.2812H77.6962V17.0719H85.1496Z" fill="white"/>
<path d="M87.1631 15.7145C88.2811 14.5442 90.2226 13.8807 92.3925 13.8807C95.4521 13.8807 97.2553 15.6904 97.2553 18.8334V26.0543H93.9433V24.9745C93.4384 25.5717 92.1822 26.187 90.7456 26.187C88.1188 26.187 86.4058 24.6548 86.4058 22.29C86.4058 19.5392 88.9604 18.3689 91.7975 18.3689C92.6209 18.3689 93.4444 18.4835 93.9433 18.6644C93.9674 17.4519 93.3062 16.9693 92.0259 16.9693C90.7456 16.9693 89.9702 17.2468 88.738 18.1155L87.1631 15.7085V15.7145ZM93.9433 21.4213C93.5767 21.2826 92.8253 21.1257 92.1401 21.1257C90.8177 21.1257 89.8319 21.4213 89.8319 22.296C89.8319 22.9355 90.427 23.3276 91.4308 23.3276C92.5488 23.3276 93.5526 22.7304 93.9433 21.9763V21.4213Z" fill="white"/>
<path d="M116.165 26.0544H112.853V19.0627C112.853 17.9165 112.559 16.9996 111.321 16.9996C110.545 16.9996 109.788 17.458 109.355 18.4413V26.0483H106.043V18.5077C106.043 17.6149 105.538 16.9935 104.648 16.9935C103.597 16.9935 102.869 17.633 102.545 18.4594V26.0483H99.2327V14.1281H102.545V14.9304C103.182 14.2186 104.282 13.8988 105.4 13.8988C106.746 13.8988 107.636 14.309 108.459 15.1838C109.349 14.2668 110.196 13.8988 111.567 13.8988C114.512 13.8988 116.159 15.3647 116.159 18.1156V26.0483L116.165 26.0544Z" fill="white"/>
<path d="M118.179 15.7145C119.297 14.5442 121.238 13.8807 123.408 13.8807C126.468 13.8807 128.271 15.6904 128.271 18.8334V26.0543H124.959V24.9745C124.454 25.5717 123.198 26.187 121.761 26.187C119.134 26.187 117.421 24.6547 117.421 22.29C117.421 19.5392 119.976 18.3689 122.813 18.3689C123.636 18.3689 124.46 18.4835 124.959 18.6644C124.983 17.4519 124.322 16.9693 123.041 16.9693C121.761 16.9693 120.986 17.2468 119.753 18.1155L118.179 15.7085V15.7145ZM124.959 21.4213C124.592 21.2826 123.841 21.1257 123.156 21.1257C121.833 21.1257 120.847 21.4213 120.847 22.296C120.847 22.9355 121.442 23.3276 122.446 23.3276C123.564 23.3276 124.568 22.7304 124.959 21.9763V21.4213Z" fill="white"/>
<path d="M27.4542 27.1395C27.4542 27.1395 12.2577 27.1395 10.8277 27.1395C10.6318 27.1395 10.4984 26.9685 10.5567 26.7976C12.4287 21.2777 12.4287 15.3658 10.5567 9.84174C10.4984 9.67081 10.636 9.49988 10.8319 9.49988H27.646C27.8086 9.49988 27.9629 9.50821 28.1213 9.51238C25.6615 4.46357 20.621 0.673828 12.2577 0.673828H0.525815C0.16727 0.673828 -0.0828783 1.01987 0.0255191 1.36173C3.44837 12.4058 3.44837 24.2336 0.0255191 35.2776C-0.0787092 35.6195 0.16727 35.9655 0.525815 35.9655C3.13569 35.9655 11.9159 35.9655 11.9159 35.9655C19.7622 35.9655 25.0611 32.3425 27.7878 27.1311C27.6752 27.1311 27.571 27.1395 27.4584 27.1395H27.4542Z" fill="url(#paint0_linear_2501_22965)"/>
<path d="M37.6097 13.99C36.2839 11.4302 33.5115 9.4957 28.8879 9.4957H28.1083C28.1333 9.5499 28.1666 9.6041 28.1917 9.6583C29.3882 12.189 29.9469 15.024 29.9469 17.8506C29.9469 21.1234 29.2506 24.2544 27.8665 26.9685C27.8373 27.0227 27.8039 27.0769 27.7747 27.1353H28.6961C33.032 27.1353 35.9504 25.2884 37.4263 22.641C38.1851 21.286 38.5644 19.7184 38.5644 18.0841C38.5644 16.6708 38.2601 15.2533 37.6055 13.9859L37.6097 13.99Z" fill="url(#paint1_linear_2501_22965)"/>
</g>
<defs>
<linearGradient id="paint0_linear_2501_22965" x1="69.7168" y1="13.2665" x2="164.171" y2="27.7342" gradientUnits="userSpaceOnUse">
<stop stop-color="white"/>
<stop offset="0.466387" stop-color="#BEF2FF"/>
<stop offset="0.738234" stop-color="#36D9FF"/>
<stop offset="1" stop-color="#00CFFF"/>
</linearGradient>
<linearGradient id="paint1_linear_2501_22965" x1="33.1698" y1="9.49561" x2="33.1698" y2="27.1352" gradientUnits="userSpaceOnUse">
<stop stop-color="#BCFFDD"/>
<stop offset="1" stop-color="#6AFFB3"/>
</linearGradient>
<clipPath id="clip0_2501_22965">
<rect width="128.271" height="35.2917" fill="white" transform="translate(0 0.673828)"/>
</clipPath>
</defs>
</svg>
