<svg width="24" height="17" viewBox="0 0 24 17" fill="none" xmlns="http://www.w3.org/2000/svg">
<g clip-path="url(#clip0_2501_22963)">
<path fill-rule="evenodd" clip-rule="evenodd" d="M21.3763 1.23131C22.4096 1.49472 23.2216 2.268 23.4982 3.25201C23.998 5.03375 24 8.75342 24 8.75342C24 8.75342 24 12.4731 23.4982 14.2549C23.2216 15.2389 22.4096 16.0121 21.3763 16.2755C19.5055 16.7534 12 16.7534 12 16.7534C12 16.7534 4.49456 16.7534 2.62364 16.2755C1.59039 16.0121 0.778399 15.2389 0.501811 14.2549C0 12.4731 0 8.75342 0 8.75342C0 8.75342 0 5.03375 0.501811 3.25201C0.778399 2.268 1.59039 1.49472 2.62364 1.23131C4.49456 0.753418 12 0.753418 12 0.753418C12 0.753418 19.5055 0.753418 21.3763 1.23131ZM15.8328 8.75374L9.59772 12.1817V5.32568L15.8328 8.75374Z" fill="#646D77"/>
</g>
<defs>
<clipPath id="clip0_2501_22963">
<rect width="24" height="16" fill="white" transform="translate(0 0.753418)"/>
</clipPath>
</defs>
</svg>
