<svg width="21" height="21" viewBox="0 0 21 21" fill="none" xmlns="http://www.w3.org/2000/svg">
<g clip-path="url(#clip0_2501_22960)">
<path fill-rule="evenodd" clip-rule="evenodd" d="M20.4 10.7532C20.4 16.3865 15.8333 20.9532 10.2 20.9532C4.5667 20.9532 0 16.3865 0 10.7532C0 5.11992 4.5667 0.553223 10.2 0.553223C15.8333 0.553223 20.4 5.11992 20.4 10.7532ZM10.5655 8.08331C9.57341 8.49596 7.59061 9.35004 4.6171 10.6456C4.13425 10.8376 3.88131 11.0254 3.85828 11.2091C3.81937 11.5195 4.2081 11.6417 4.73744 11.8082C4.80945 11.8308 4.88405 11.8543 4.96054 11.8791C5.48133 12.0484 6.18189 12.2465 6.54609 12.2544C6.87644 12.2615 7.24516 12.1253 7.65224 11.8458C10.4305 9.97038 11.8646 9.02246 11.9547 9.00203C12.0182 8.98761 12.1062 8.96949 12.1658 9.0225C12.2255 9.07551 12.2196 9.1759 12.2133 9.20283C12.1748 9.367 10.6489 10.7856 9.85924 11.5197C9.61307 11.7486 9.43845 11.9109 9.40276 11.948C9.32279 12.0311 9.2413 12.1096 9.16297 12.1851C8.67914 12.6516 8.31631 13.0013 9.18306 13.5725C9.59958 13.847 9.93288 14.074 10.2654 14.3004C10.6285 14.5477 10.9907 14.7944 11.4594 15.1016C11.5788 15.1798 11.6928 15.2611 11.8038 15.3403C12.2265 15.6416 12.6061 15.9122 13.0752 15.8691C13.3477 15.844 13.6293 15.5877 13.7723 14.8233C14.1102 13.0169 14.7744 9.10291 14.9279 7.49005C14.9413 7.34874 14.9244 7.1679 14.9108 7.08851C14.8972 7.00912 14.8688 6.89602 14.7657 6.81228C14.6434 6.71312 14.4548 6.69221 14.3704 6.6937C13.9868 6.70045 13.3982 6.90512 10.5655 8.08331Z" fill="#646D77"/>
</g>
<defs>
<clipPath id="clip0_2501_22960">
<rect width="20.4" height="20.4" fill="white" transform="translate(0 0.553223)"/>
</clipPath>
</defs>
</svg>
