<svg width="22" height="22" viewBox="0 0 22 22" fill="none" xmlns="http://www.w3.org/2000/svg">
<path fill-rule="evenodd" clip-rule="evenodd" d="M10.9998 0.799805C16.6333 0.799805 21.1998 5.48153 21.1998 11.2578C21.1998 15.8774 18.2806 19.7962 14.2301 21.1804C13.713 21.2834 13.5294 20.9568 13.5294 20.6783C13.5294 20.3336 13.5416 19.2075 13.5416 17.8081C13.5416 16.833 13.2152 16.1966 12.8491 15.8722C15.1206 15.6131 17.5074 14.7287 17.5074 10.7119C17.5074 9.56953 17.1116 8.6373 16.4568 7.90494C16.5629 7.64076 16.9127 6.57704 16.3568 5.1368C16.3568 5.1368 15.5021 4.85657 13.5549 6.20909C12.7399 5.97755 11.8668 5.86105 10.9998 5.85697C10.1328 5.86105 9.26071 5.97755 8.44675 6.20909C6.49753 4.85657 5.64073 5.1368 5.64073 5.1368C5.08687 6.57704 5.43673 7.64076 5.54179 7.90494C4.89001 8.6373 4.49119 9.56953 4.49119 10.7119C4.49119 14.7185 6.87289 15.6165 9.13831 15.8807C8.84659 16.1418 8.58241 16.6024 8.49061 17.2787C7.90921 17.5459 6.43224 18.0084 5.5224 16.4101C5.5224 16.4101 4.98282 15.4053 3.95874 15.3318C3.95874 15.3318 2.96424 15.3186 3.88938 15.9673C3.88938 15.9673 4.55748 16.2886 5.02158 17.4973C5.02158 17.4973 5.62033 19.3639 8.45797 18.7315C8.46307 19.6056 8.47225 20.4295 8.47225 20.6783C8.47225 20.9548 8.28456 21.2783 7.77558 21.1814C3.7221 19.7993 0.799805 15.8784 0.799805 11.2578C0.799805 5.48153 5.36736 0.799805 10.9998 0.799805Z" fill="#646D77"/>
</svg>
