<svg width="126" height="58" viewBox="0 0 126 58" fill="none" xmlns="http://www.w3.org/2000/svg">
<path d="M55.7169 34.441C55.3895 34.8081 54.5663 35.3396 53.3195 35.3396C50.7199 35.3396 48.8376 33.6341 48.8376 30.4406C48.8376 27.4837 50.9606 25.4497 53.4832 25.4497C54.8167 25.4497 55.404 25.7058 55.7169 25.9087V21.7972H58.3694V35.1995H55.7169V34.4458V34.441ZM55.7169 31.745V28.6626C55.404 28.2761 54.9322 27.9282 54.0512 27.9282C52.6985 27.9282 51.5816 28.7931 51.5816 30.4067C51.5816 32.0204 52.5493 32.8659 53.8876 32.8659C54.5808 32.8659 55.404 32.4263 55.7169 31.745Z" fill="white"/>
<path d="M60.0684 26.9136C60.9638 25.9763 62.5187 25.4449 64.2566 25.4449C66.7069 25.4449 68.1511 26.8943 68.1511 29.4114V35.1946H65.4986V34.3298C65.0942 34.8081 64.0881 35.3009 62.9375 35.3009C60.8338 35.3009 59.4618 34.0737 59.4618 32.1798C59.4618 29.9767 61.5077 29.0394 63.78 29.0394C64.4395 29.0394 65.099 29.1312 65.4986 29.2762C65.5178 28.305 64.9883 27.9185 63.9629 27.9185C62.9375 27.9185 62.3165 28.1408 61.3296 28.8365L60.0684 26.9088V26.9136ZM65.4986 31.9238V31.4841C65.2049 31.373 64.6032 31.2474 64.0544 31.2474C62.9953 31.2474 62.2058 31.4841 62.2058 32.1847C62.2058 32.6968 62.6824 33.0108 63.4863 33.0108C64.3817 33.0108 65.1857 32.5325 65.4986 31.9286V31.9238Z" fill="white"/>
<path d="M75.5989 28.0007H81.5635V33.1945C80.3215 34.5714 78.4536 35.4169 76.4077 35.4169C72.3831 35.4169 69.4755 32.7548 69.4755 28.7737C69.4755 25.1019 72.1472 22.1306 76.0947 22.1306C78.2899 22.1306 80.3744 23.0485 81.2698 24.4448L79.3105 26.2083C78.5788 25.3821 77.5197 24.8845 76.2007 24.8845C73.8755 24.8845 72.412 26.3532 72.412 28.7737C72.412 31.1943 74.0969 32.663 76.4173 32.663C77.2597 32.663 78.1552 32.4263 78.8291 31.9286V30.571H75.5941V28.0007H75.5989Z" fill="white"/>
<path d="M83.176 26.9136C84.0714 25.9763 85.6264 25.4449 87.3642 25.4449C89.8146 25.4449 91.2588 26.8943 91.2588 29.4115V35.1947H88.6062V34.3298C88.2019 34.8081 87.1957 35.301 86.0452 35.301C83.9414 35.301 82.5695 34.0738 82.5695 32.1799C82.5695 29.9767 84.6154 29.0395 86.8876 29.0395C87.5472 29.0395 88.2067 29.1313 88.6062 29.2762C88.6255 28.3051 88.096 27.9186 87.0706 27.9186C86.0452 27.9186 85.4242 28.1408 84.4373 28.8365L83.176 26.9088V26.9136ZM88.6062 31.9238V31.4841C88.3126 31.373 87.7108 31.2474 87.162 31.2474C86.1029 31.2474 85.3135 31.4841 85.3135 32.1847C85.3135 32.6968 85.79 33.0109 86.594 33.0109C87.4894 33.0109 88.2933 32.5326 88.6062 31.9286V31.9238Z" fill="white"/>
<path d="M106.404 35.1947H103.751V29.5951C103.751 28.6771 103.515 27.9427 102.524 27.9427C101.903 27.9427 101.296 28.3099 100.949 29.0974V35.1898H98.2968V29.1506C98.2968 28.4355 97.8924 27.9379 97.18 27.9379C96.3375 27.9379 95.755 28.45 95.4951 29.1119V35.1898H92.8425V25.643H95.4951V26.2855C96.0053 25.7154 96.8863 25.4594 97.7817 25.4594C98.8601 25.4594 99.5725 25.7879 100.232 26.4885C100.945 25.7541 101.623 25.4594 102.721 25.4594C105.08 25.4594 106.399 26.6334 106.399 28.8365V35.1898L106.404 35.1947Z" fill="white"/>
<path d="M108.016 26.9136C108.912 25.9763 110.466 25.4449 112.204 25.4449C114.655 25.4449 116.099 26.8943 116.099 29.4114V35.1946H113.446V34.3298C113.042 34.8081 112.036 35.3009 110.885 35.3009C108.782 35.3009 107.41 34.0737 107.41 32.1798C107.41 29.9767 109.456 29.0394 111.728 29.0394C112.387 29.0394 113.047 29.1312 113.446 29.2762C113.466 28.305 112.936 27.9185 111.911 27.9185C110.885 27.9185 110.264 28.1408 109.277 28.8365L108.016 26.9088V26.9136ZM113.446 31.9238V31.4841C113.153 31.373 112.551 31.2474 112.002 31.2474C110.943 31.2474 110.154 31.4841 110.154 32.1847C110.154 32.6968 110.63 33.0108 111.434 33.0108C112.329 33.0108 113.133 32.5325 113.446 31.9286V31.9238Z" fill="white"/>
<path d="M35.3564 36.0637C35.3564 36.0637 23.1857 36.0637 22.0404 36.0637C21.8834 36.0637 21.7766 35.9268 21.8233 35.7899C23.3226 31.369 23.3226 26.6343 21.8233 22.2101C21.7766 22.0732 21.8868 21.9363 22.0437 21.9363H35.51C35.6402 21.9363 35.7638 21.943 35.8906 21.9463C33.9206 17.9028 29.8837 14.8676 23.1857 14.8676H13.7897C13.5025 14.8676 13.3022 15.1447 13.389 15.4185C16.1303 24.2636 16.1303 33.7364 13.389 42.5815C13.3055 42.8553 13.5025 43.1324 13.7897 43.1324C15.8799 43.1324 22.9119 43.1324 22.9119 43.1324C29.1959 43.1324 33.4398 40.2308 35.6235 36.057C35.5334 36.057 35.4499 36.0637 35.3597 36.0637H35.3564Z" fill="url(#paint0_linear_9550_23412)"/>
<path d="M43.4898 25.5324C42.428 23.4823 40.2075 21.933 36.5046 21.933H35.8802C35.9002 21.9764 35.9269 22.0198 35.9469 22.0632C36.9052 24.09 37.3527 26.3605 37.3527 28.6244C37.3527 31.2455 36.795 33.7531 35.6865 35.9268C35.6631 35.9702 35.6364 36.0136 35.613 36.0604H36.351C39.8235 36.0604 42.1609 34.5812 43.3429 32.4609C43.9506 31.3757 44.2544 30.1202 44.2544 28.8114C44.2544 27.6794 44.0107 26.5442 43.4864 25.5291L43.4898 25.5324Z" fill="url(#paint1_linear_9550_23412)"/>
<rect x="113" y="11.8033" width="12" height="12" rx="6" fill="#00F87A"/>
<path d="M117.361 22.0652V16.3055C117.361 15.9005 117.434 15.568 117.579 15.308C117.729 15.043 117.939 14.848 118.209 14.723C118.484 14.593 118.806 14.528 119.176 14.528C119.536 14.528 119.844 14.583 120.099 14.693C120.354 14.798 120.549 14.958 120.684 15.173C120.824 15.383 120.894 15.648 120.894 15.968C120.894 16.208 120.851 16.4155 120.766 16.5904C120.686 16.7654 120.571 16.9054 120.421 17.0104C120.276 17.1154 120.101 17.1879 119.896 17.2279V17.2504C120.156 17.2854 120.381 17.3579 120.571 17.4679C120.766 17.5779 120.916 17.7329 121.021 17.9329C121.131 18.1279 121.186 18.3779 121.186 18.6829C121.186 19.0329 121.106 19.3328 120.946 19.5828C120.791 19.8278 120.581 20.0153 120.316 20.1453C120.056 20.2753 119.766 20.3403 119.446 20.3403C119.286 20.3403 119.154 20.3303 119.049 20.3103C118.944 20.2953 118.846 20.2703 118.756 20.2353C118.671 20.2003 118.579 20.1578 118.479 20.1078V22.0652H117.361ZM119.236 19.4478C119.486 19.4478 119.681 19.3728 119.821 19.2228C119.961 19.0679 120.031 18.8554 120.031 18.5854C120.031 18.3804 119.989 18.2154 119.904 18.0904C119.824 17.9604 119.721 17.8679 119.596 17.8129C119.471 17.7529 119.341 17.7229 119.206 17.7229H118.869V16.8829H119.139C119.274 16.8829 119.389 16.8504 119.484 16.7854C119.579 16.7154 119.651 16.6229 119.701 16.5079C119.751 16.388 119.776 16.253 119.776 16.103C119.776 15.868 119.716 15.693 119.596 15.578C119.476 15.458 119.334 15.398 119.169 15.398C119.029 15.398 118.906 15.428 118.801 15.488C118.696 15.548 118.616 15.6455 118.561 15.7805C118.506 15.9105 118.479 16.088 118.479 16.313V19.1929C118.604 19.2728 118.726 19.3353 118.846 19.3803C118.966 19.4253 119.096 19.4478 119.236 19.4478Z" fill="#051323"/>
<defs>
<linearGradient id="paint0_linear_9550_23412" x1="25.6096" y1="24.953" x2="42.564" y2="25.5223" gradientUnits="userSpaceOnUse">
<stop stop-color="white"/>
<stop offset="0.466387" stop-color="#BEF2FF"/>
<stop offset="0.738234" stop-color="#36D9FF"/>
<stop offset="1" stop-color="#00CFFF"/>
</linearGradient>
<linearGradient id="paint1_linear_9550_23412" x1="39.9337" y1="21.933" x2="39.9337" y2="36.0604" gradientUnits="userSpaceOnUse">
<stop stop-color="#BCFFDD"/>
<stop offset="1" stop-color="#6AFFB3"/>
</linearGradient>
</defs>
</svg>
